<svg height="400px" width="600px" version="1.1" id="Layer_1" xmlns="http://www.w3.org/2000/svg" xmlns:xlink="http://www.w3.org/1999/xlink" viewBox="0 0 312 712" xml:space="preserve" fill="#0d0d0d" stroke="#0d0d0d" stroke-width="0.00512"><g id="SVGRepo_bgCarrier" stroke-width="0"></g><g id="SVGRepo_tracerCarrier" stroke-linecap="round" stroke-linejoin="round" stroke="#CCCCCC" stroke-width="3.072"></g><g id="SVGRepo_iconCarrier"> <g transform="translate(1) rotate(60)"> <g> <path style="fill:#FFE100;" d="M314.733,503.467H195.267c0-18.773,15.36-34.133,34.133-34.133h51.2 C299.373,469.333,314.733,484.693,314.733,503.467"></path> <polygon style="fill:#FFE100;" points="237.933,469.333 272.067,469.333 272.067,247.467 237.933,247.467 "></polygon> <polygon style="fill:#FFE100;" points="203.8,247.467 306.2,247.467 306.2,8.533 203.8,8.533 "></polygon> </g> <path style="fill:#e4afba;" d="M272.067,59.733c0,9.387-7.68,17.067-17.067,17.067s-17.067-7.68-17.067-17.067 s7.68-17.067,17.067-17.067S272.067,50.347,272.067,59.733"></path> <path style="fill:#ffaa00;" d="M272.067,128c0,9.387-7.68,17.067-17.067,17.067s-17.067-7.68-17.067-17.067 s7.68-17.067,17.067-17.067S272.067,118.613,272.067,128"></path> <path style="fill:#00DA6C;" d="M272.067,196.267c0,9.387-7.68,17.067-17.067,17.067s-17.067-7.68-17.067-17.067 S245.613,179.2,255,179.2S272.067,186.88,272.067,196.267"></path> <polygon style="fill:#ffaa00;" points="289.133,247.467 306.2,247.467 306.2,8.533 289.133,8.533 "></polygon> <polygon style="fill:#ffffff;" points="203.8,247.467 220.867,247.467 220.867,8.533 203.8,8.533 "></polygon> <path d="M314.733,512L314.733,512H195.267c-5.12,0-8.533-3.413-8.533-8.533c0-23.893,18.773-42.667,42.667-42.667h51.2 c23.04,0,41.813,17.92,42.667,40.96c0,0.853,0,0.853,0,1.707C323.267,508.587,319.853,512,314.733,512z M205.507,494.933h99.84 c-3.413-10.24-12.8-17.067-23.893-17.067H229.4C218.307,477.867,208.92,484.693,205.507,494.933z"></path> <path d="M272.067,477.867h-34.133c-5.12,0-8.533-3.413-8.533-8.533V247.467c0-5.12,3.413-8.533,8.533-8.533h34.133 c5.12,0,8.533,3.413,8.533,8.533v221.867C280.6,474.453,277.187,477.867,272.067,477.867z M246.467,460.8h17.067V256h-17.067V460.8 z"></path> <path d="M306.2,256H203.8c-5.12,0-8.533-3.413-8.533-8.533V8.533c0-5.12,3.413-8.533,8.533-8.533h102.4 c5.12,0,8.533,3.413,8.533,8.533v238.933C314.733,252.587,311.32,256,306.2,256z M212.333,238.933h85.333V17.067h-85.333V238.933z"></path> <path d="M255,85.333c-14.507,0-25.6-11.093-25.6-25.6s11.093-25.6,25.6-25.6s25.6,11.093,25.6,25.6S269.507,85.333,255,85.333z M255,51.2c-5.12,0-8.533,3.413-8.533,8.533s3.413,8.533,8.533,8.533s8.533-3.413,8.533-8.533S260.12,51.2,255,51.2z"></path> <path d="M255,153.6c-14.507,0-25.6-11.093-25.6-25.6c0-14.507,11.093-25.6,25.6-25.6s25.6,11.093,25.6,25.6 C280.6,142.507,269.507,153.6,255,153.6z M255,119.467c-5.12,0-8.533,3.413-8.533,8.533c0,5.12,3.413,8.533,8.533,8.533 s8.533-3.413,8.533-8.533C263.533,122.88,260.12,119.467,255,119.467z"></path> <path d="M255,221.867c-14.507,0-25.6-11.093-25.6-25.6s11.093-25.6,25.6-25.6s25.6,11.093,25.6,25.6S269.507,221.867,255,221.867z M255,187.733c-5.12,0-8.533,3.413-8.533,8.533c0,5.12,3.413,8.533,8.533,8.533s8.533-3.413,8.533-8.533 C263.533,191.147,260.12,187.733,255,187.733z"></path> <path d="M331.8,17.067H178.2c-5.12,0-8.533-3.413-8.533-8.533S173.08,0,178.2,0h153.6c5.12,0,8.533,3.413,8.533,8.533 S336.92,17.067,331.8,17.067z"></path> </g> </g></svg>